<?xml version="1.0" encoding="UTF-8" standalone="no"?>
<svg width="800px" height="600px" viewBox="0 0 800 600" version="1.1" xmlns="http://www.w3.org/2000/svg">
    <g stroke="none" stroke-width="1" fill="none" fill-rule="evenodd">
        <path d="M600,300 C600,380 530,450 450,450 C370,450 300,380 300,300 C300,220 370,150 450,150 C530,150 600,220 600,300 Z" fill="#FFFFFF"/>
        <path d="M250,350 L450,350 L500,250 L400,200 L300,250 Z" fill="#FFFFFF"/>
        <path d="M200,300 C200,380 130,450 50,450 C-30,450 -100,380 -100,300 C-100,220 -30,150 50,150 C130,150 200,220 200,300 Z" fill="#FFFFFF"/>
        <path d="M450,280 L500,280 L520,300 L500,320 L450,320 Z" fill="#FFFFFF"/>
    </g>
</svg>
