<?xml version="1.0" encoding="UTF-8"?>
<svg width="512" height="512" viewBox="0 0 512 512" fill="none" xmlns="http://www.w3.org/2000/svg">
  <path d="M400 352c-35.3 0-64 28.7-64 64s28.7 64 64 64 64-28.7 64-64-28.7-64-64-64zm0 96c-17.7 0-32-14.3-32-32s14.3-32 32-32 32 14.3 32 32-14.3 32-32 32zm-272-96c-35.3 0-64 28.7-64 64s28.7 64 64 64 64-28.7 64-64-28.7-64-64-64zm0 96c-17.7 0-32-14.3-32-32s14.3-32 32-32 32 14.3 32 32-14.3 32-32 32zM368 32c-8.8 0-16 7.2-16 16v48h-48V56c0-13.3-10.7-24-24-24s-24 10.7-24 24v40h-48V56c0-13.3-10.7-24-24-24s-24 10.7-24 24v40H96c-17.7 0-32 14.3-32 32v192c0 17.7 14.3 32 32 32h240c17.7 0 32-14.3 32-32V128c0-17.7-14.3-32-32-32h-48V48c0-8.8-7.2-16-16-16zm-16 256H96V128h256v160z" fill="white"/>
</svg>
